<svg width="1067" height="389" viewBox="0 0 1067 389" fill="none" xmlns="http://www.w3.org/2000/svg">
<path d="M810.067 164.604C833.37 164.604 852.262 145.712 852.262 122.408C852.262 99.1044 833.37 80.2129 810.067 80.2129C786.763 80.2129 767.871 99.1044 767.871 122.408C767.871 145.712 786.763 164.604 810.067 164.604Z" fill="#D8D8D8"/>
<path d="M157.502 218.079C195.572 218.079 226.435 187.217 226.435 149.146C226.435 111.075 195.572 80.2129 157.502 80.2129C119.431 80.2129 88.5685 111.075 88.5685 149.146C88.5685 187.217 119.431 218.079 157.502 218.079Z" fill="#D8D8D8"/>
<path d="M484.203 302.47C507.507 302.47 526.399 283.578 526.399 260.274C526.399 236.971 507.507 218.079 484.203 218.079C460.899 218.079 442.008 236.971 442.008 260.274C442.008 283.578 460.899 302.47 484.203 302.47Z" fill="#D8D8D8"/>
<path d="M42.1955 313.332C65.4994 313.332 84.3909 294.441 84.3909 271.137C84.3909 247.833 65.4994 228.941 42.1955 228.941C18.8916 228.941 0.00012207 247.833 0.00012207 271.137C0.00012207 294.441 18.8916 313.332 42.1955 313.332Z" fill="#D8D8D8"/>
<path d="M924.539 267.377C947.843 267.377 966.735 248.486 966.735 225.182C966.735 201.878 947.843 182.986 924.539 182.986C901.235 182.986 882.344 201.878 882.344 225.182C882.344 248.486 901.235 267.377 924.539 267.377Z" fill="#D8D8D8"/>
<path d="M821.766 388.531C845.07 388.531 863.961 369.64 863.961 346.336C863.961 323.032 845.07 304.141 821.766 304.141C798.462 304.141 779.57 323.032 779.57 346.336C779.57 369.64 798.462 388.531 821.766 388.531Z" fill="#D8D8D8"/>
<path d="M1024.8 84.3908C1048.11 84.3908 1067 65.4992 1067 42.1954C1067 18.8915 1048.11 0 1024.8 0C1001.5 0 982.609 18.8915 982.609 42.1954C982.609 65.4992 1001.5 84.3908 1024.8 84.3908Z" fill="#D8D8D8"/>
<path d="M661.34 233.119C684.644 233.119 703.535 214.228 703.535 190.924C703.535 167.62 684.644 148.729 661.34 148.729C638.036 148.729 619.145 167.62 619.145 190.924C619.145 214.228 638.036 233.119 661.34 233.119Z" fill="#D8D8D8"/>
<path d="M308.32 167.111C327.24 167.111 342.578 151.773 342.578 132.853C342.578 113.933 327.24 98.5957 308.32 98.5957C289.4 98.5957 274.063 113.933 274.063 132.853C274.063 151.773 289.4 167.111 308.32 167.111Z" fill="#D8D8D8"/>
<path d="M767.873 251.501C780.332 251.501 790.432 241.4 790.432 228.941C790.432 216.481 780.332 206.381 767.873 206.381C755.413 206.381 745.313 216.481 745.313 228.941C745.313 241.4 755.413 251.501 767.873 251.501Z" fill="#D8D8D8"/>
<path d="M505.509 172.124C523.506 172.124 538.095 157.535 538.095 139.538C538.095 121.541 523.506 106.951 505.509 106.951C487.511 106.951 472.922 121.541 472.922 139.538C472.922 157.535 487.511 172.124 505.509 172.124Z" fill="#D8D8D8"/>
<path d="M263.199 289.936C275.658 289.936 285.759 279.836 285.759 267.376C285.759 254.917 275.658 244.816 263.199 244.816C250.739 244.816 240.639 254.917 240.639 267.376C240.639 279.836 250.739 289.936 263.199 289.936Z" fill="#D8D8D8"/>
<path d="M376.834 235.625C392.985 235.625 406.079 222.532 406.079 206.381C406.079 190.23 392.985 177.137 376.834 177.137C360.683 177.137 347.59 190.23 347.59 206.381C347.59 222.532 360.683 235.625 376.834 235.625Z" fill="#D8D8D8"/>
</svg>
