<svg width="59" height="59" viewBox="0 0 59 59" fill="none" xmlns="http://www.w3.org/2000/svg">
<path d="M29.0493 0.358317C13.032 0.344837 0.040377 13.3186 0.0268965 29.3359C0.013416 45.3532 12.9872 58.3448 29.0045 58.3583C45.0196 58.3448 58.0022 45.3735 58.0269 29.3583C58.0269 13.35 45.0577 0.371798 29.0493 0.358317ZM29.0045 53.5325C15.6537 53.5325 4.83036 42.7091 4.83036 29.3583C4.83036 16.0076 15.6537 5.18421 29.0045 5.18421C42.3507 5.19769 53.1651 16.0121 53.1786 29.3583C53.1786 42.7091 42.3552 53.5325 29.0045 53.5325Z" fill="url(#paint0_linear_0_1)"/>
<path d="M36.8377 27.9442C38.7771 26.851 39.8253 24.6626 39.4639 22.4673C39.015 19.0781 34.9748 17.7986 31.7874 17.5293V12.4341H28.645V17.4844H26.5351V12.4341H23.3927V17.4844H17.0629V20.7391H19.4197C20.4747 20.7391 20.9909 21.0534 20.9909 21.9063V35.89C20.9909 37.0572 20.4073 37.4164 19.7788 37.4164H17.3771V40.7384H23.4824V45.9009H26.6473V40.7384H28.7571V45.9009H31.8323V40.7384H32.5056C38.97 40.7384 41.1248 37.5735 41.1248 33.264C41.0732 30.7229 39.3112 28.5367 36.8377 27.9442ZM26.535 20.9411H28.7796C30.3508 20.9411 33.4483 21.2105 33.4483 23.7693C33.5561 25.4393 32.3462 26.9028 30.6874 27.1137H26.535V20.9411ZM30.0141 37.102V37.0796H26.535V30.3458H30.5753C31.518 30.3458 35.0644 30.6601 35.0644 33.174C35.0644 35.6879 33.381 37.102 30.0141 37.102Z" fill="url(#paint1_linear_0_1)"/>
<defs>
<linearGradient id="paint0_linear_0_1" x1="31.9269" y1="-8.77133" x2="35.1992" y2="93.9744" gradientUnits="userSpaceOnUse">
<stop stop-color="#FD749B"/>
<stop offset="1" stop-color="#281AC8"/>
</linearGradient>
<linearGradient id="paint1_linear_0_1" x1="30.297" y1="7.16622" x2="32.9206" y2="66.3958" gradientUnits="userSpaceOnUse">
<stop stop-color="#FD749B"/>
<stop offset="1" stop-color="#281AC8"/>
</linearGradient>
</defs>
</svg>
